<svg width="17" height="16" viewBox="0 0 17 16" fill="none" xmlns="http://www.w3.org/2000/svg">
<path d="M0.539029 0.642181C0.215579 0.642181 -0.0539631 0.928911 -5.47399e-05 1.24171L2.29105 14.6659C2.34496 15.0047 2.64145 15.2654 3.01881 15.2654H13.9892C14.2587 15.2654 14.4743 15.0829 14.5282 14.8223L16.8194 1.24171C16.8733 0.928911 16.6307 0.642181 16.2803 0.642181H0.539029ZM10.1886 10.3389H6.68458L5.74119 5.54265H11.0512L10.1886 10.3389Z" fill="#2684FF"/>
<path d="M16.0915 5.54266H11.0241L10.1885 10.3389H6.68451L2.53356 15.0829C2.53356 15.0829 2.72224 15.2654 3.01874 15.2654H13.9891C14.2586 15.2654 14.4743 15.0829 14.5282 14.8223L16.0915 5.54266Z" fill="url(#paint0_linear_9061_1775)"/>
<defs>
<linearGradient id="paint0_linear_9061_1775" x1="17.2536" y1="6.89003" x2="9.10612" y2="13.4665" gradientUnits="userSpaceOnUse">
<stop offset="0.176" stop-color="#0052CC"/>
<stop offset="1" stop-color="#2684FF"/>
</linearGradient>
</defs>
</svg>
