<svg width="17" height="18" viewBox="0 0 17 18" fill="none" xmlns="http://www.w3.org/2000/svg">
<path d="M0.591788 13.425C0.430412 13.725 0.215245 14.0523 0.0538691 14.3251C-0.107507 14.5705 -0.0268187 14.8978 0.242141 15.0614L3.73861 17.2433C4.00757 17.4069 4.33033 17.3251 4.4917 17.0524C4.62618 16.8069 4.81445 16.5069 5.00272 16.1796C6.40131 13.8614 7.77301 14.1341 10.3012 15.3614L13.7708 17.0251C14.0398 17.1615 14.3625 17.0251 14.497 16.7524L16.1645 12.9341C16.2721 12.6614 16.1645 12.3341 15.8956 12.225C15.1694 11.8705 13.717 11.1886 12.3991 10.5341C7.66542 8.24315 3.65793 8.37951 0.591788 13.425Z" fill="url(#paint0_linear_9061_2044)"/>
<path d="M16.2721 4.77946C16.4335 4.47946 16.6486 4.15218 16.81 3.87945C16.9714 3.63399 16.8907 3.30671 16.6217 3.14307L13.1253 0.961219C12.8563 0.79758 12.5335 0.8794 12.3722 1.15213C12.2377 1.39759 12.0494 1.69759 11.8611 2.02487C10.4626 4.34309 9.09086 4.07036 6.56264 2.84307L3.11996 1.15213C2.851 1.01577 2.52825 1.15213 2.39377 1.42486L0.726224 5.2431C0.61864 5.51584 0.726224 5.84311 0.995183 5.95221C1.72137 6.30676 3.17376 6.98858 4.49166 7.64314C9.19845 9.96136 13.2059 9.82499 16.2721 4.77946Z" fill="url(#paint1_linear_9061_2044)"/>
<defs>
<linearGradient id="paint0_linear_9061_2044" x1="16.0523" y1="18.3758" x2="5.40115" y2="12.34" gradientUnits="userSpaceOnUse">
<stop stop-color="#0052CC"/>
<stop offset="0.9182" stop-color="#2380FB"/>
<stop offset="1" stop-color="#2684FF"/>
</linearGradient>
<linearGradient id="paint1_linear_9061_2044" x1="0.82582" y1="-0.173698" x2="11.4769" y2="5.86203" gradientUnits="userSpaceOnUse">
<stop stop-color="#0052CC"/>
<stop offset="0.9182" stop-color="#2380FB"/>
<stop offset="1" stop-color="#2684FF"/>
</linearGradient>
</defs>
</svg>
