<svg width="20" height="19" viewBox="0 0 20 19" fill="none" xmlns="http://www.w3.org/2000/svg">
<path d="M18.498 0.25H9.19519C9.19519 2.49582 11.0773 4.32382 13.3895 4.32382H15.1103V5.91678C15.1103 8.16261 16.9924 9.9906 19.3046 9.9906V1.03343C19.3046 0.589485 18.9551 0.25 18.498 0.25Z" fill="#2684FF"/>
<path d="M13.9004 4.74164H4.5976C4.5976 6.98746 6.47967 8.81545 8.79194 8.81545H10.5127V10.4345C10.5127 12.6804 12.3948 14.5084 14.707 14.5084V5.52506C14.707 5.10724 14.3575 4.74164 13.9004 4.74164Z" fill="url(#paint0_linear_9061_1862)"/>
<path d="M9.30283 9.2594H0C0 11.5052 1.88208 13.3332 4.19434 13.3332H5.91509V14.9262C5.91509 17.172 7.79717 19 10.1094 19V10.0428C10.1094 9.59888 9.73302 9.2594 9.30283 9.2594Z" fill="url(#paint1_linear_9061_1862)"/>
<defs>
<linearGradient id="paint0_linear_9061_1862" x1="14.5091" y1="4.76417" x2="10.6726" y2="8.8376" gradientUnits="userSpaceOnUse">
<stop offset="0.176" stop-color="#0052CC"/>
<stop offset="1" stop-color="#2684FF"/>
</linearGradient>
<linearGradient id="paint1_linear_9061_1862" x1="10.1701" y1="9.28943" x2="5.72672" y2="13.7406" gradientUnits="userSpaceOnUse">
<stop offset="0.176" stop-color="#0052CC"/>
<stop offset="1" stop-color="#2684FF"/>
</linearGradient>
</defs>
</svg>
