<svg width="147" height="24" viewBox="0 0 147 24" fill="none" xmlns="http://www.w3.org/2000/svg">
<rect width="147" height="24" fill="white" fill-opacity="0.01"/>
<path d="M91.6403 15.0556C91.6403 12.4852 90.2604 11.2676 86.4183 10.4288C84.2808 9.96888 83.7667 9.48185 83.7667 8.80542C83.7667 7.96665 84.5243 7.58785 85.9313 7.58785C87.6359 7.58785 89.3134 8.10193 90.9098 8.83248V5.45033C89.8004 4.88213 88.0688 4.44922 86.0395 4.44922C82.2244 4.44922 80.2493 6.09971 80.2493 8.83248C80.2493 10.997 81.2504 12.7287 85.2007 13.4863C87.5547 13.9733 88.0417 14.3521 88.0417 15.1368C88.0417 15.8944 87.5547 16.3814 85.8772 16.3814C83.9561 16.3814 81.6562 15.7321 80.1681 14.8392V18.3837C81.3586 18.9789 82.9279 19.6283 85.8501 19.6283C89.9898 19.6283 91.6403 17.7884 91.6403 15.0556Z" fill="#0052CC"/>
<path d="M133.255 4.66571V19.4119H136.394V8.18314L137.719 11.1594L142.157 19.4119H146.107V4.66571H142.969V14.1898L141.778 11.43L138.206 4.66571H133.255Z" fill="#0052CC"/>
<path d="M113.314 4.66571H109.878V19.3848H113.314V4.66571Z" fill="#0052CC"/>
<path d="M105.9 15.0556C105.9 12.4852 104.52 11.2676 100.677 10.4288C98.54 9.96888 98.0259 9.48185 98.0259 8.80542C98.0259 7.96665 98.7835 7.58785 100.19 7.58785C101.895 7.58785 103.573 8.10193 105.169 8.83248V5.45033C104.06 4.88213 102.328 4.44922 100.299 4.44922C96.4836 4.44922 94.5084 6.09971 94.5084 8.83248C94.5084 10.997 95.5096 12.7287 99.4599 13.4863C101.814 13.9733 102.301 14.3521 102.301 15.1368C102.301 15.8944 101.814 16.3814 100.136 16.3814C98.2153 16.3814 95.9154 15.7321 94.4273 14.8392V18.3837C95.6178 18.9789 97.1871 19.6283 100.109 19.6283C104.276 19.6283 105.9 17.7884 105.9 15.0556Z" fill="#0052CC"/>
<path d="M53.6257 4.66571V19.4119H60.6606L61.77 16.2191H57.062V4.66571H53.6257Z" fill="#0052CC"/>
<path d="M39.6916 4.66582V7.85856H43.5067V19.412H46.943V7.85856H51.0286V4.66582H39.6916Z" fill="#0052CC"/>
<path d="M34.6859 4.66562H30.1673L25.0265 19.4118H28.9498L29.6803 16.9225C30.5461 17.166 31.4661 17.3284 32.4402 17.3284C33.3872 17.3284 34.3071 17.1931 35.2 16.9225L35.9305 19.4118H39.8538L34.6859 4.66562ZM32.4131 14.2709C31.7637 14.2709 31.1144 14.1627 30.5191 14.0003L32.4131 7.56074L34.3071 14.0003C33.7118 14.1627 33.0895 14.2709 32.4131 14.2709Z" fill="#0052CC"/>
<path d="M72.836 4.66568H68.3175L63.1766 19.3848H67.0999L67.8304 16.8955C68.6963 17.139 69.6162 17.3014 70.5903 17.3014C71.5373 17.3014 72.4572 17.1661 73.3501 16.8955L74.0806 19.3848H78.0039L72.836 4.66568ZM70.5632 14.271C69.9138 14.271 69.2645 14.1627 68.6692 14.0004L70.5632 7.56079L72.4572 14.0004C71.862 14.1627 71.2126 14.271 70.5632 14.271Z" fill="#0052CC"/>
<path d="M125.652 4.66568H121.133L115.992 19.3848H119.916L120.646 16.8955C121.512 17.139 122.432 17.3014 123.406 17.3014C124.353 17.3014 125.273 17.1661 126.166 16.8955L126.896 19.3848H130.82L125.652 4.66568ZM123.406 14.271C122.757 14.271 122.107 14.1627 121.512 14.0004L123.406 7.56079L125.3 14.0004C124.678 14.1627 124.055 14.271 123.406 14.271Z" fill="#0052CC"/>
<path d="M5.32726 9.78079C5.05669 9.48316 4.65083 9.51022 4.46143 9.86196L0.0511182 18.6555C-0.111225 19.0073 0.13229 19.4131 0.51109 19.4131H6.62601C6.81541 19.4131 7.00481 19.3049 7.08598 19.1155C8.43884 16.3827 7.62712 12.243 5.32726 9.78079Z" fill="url(#paint0_linear_2605_1063)"/>
<path d="M8.54769 1.77093C6.08549 5.66716 6.24783 9.96925 7.87126 13.2161C9.49469 16.463 10.7393 18.9252 10.8205 19.1146C10.9017 19.304 11.0911 19.4122 11.2805 19.4122H17.3954C17.7742 19.4122 18.0448 19.0063 17.8554 18.6546C17.8554 18.6546 9.62998 2.20385 9.41352 1.79799C9.25118 1.41919 8.79121 1.39213 8.54769 1.77093Z" fill="#2684FF"/>
<defs>
<linearGradient id="paint0_linear_2605_1063" x1="7.72764" y1="11.1252" x2="3.09245" y2="19.1536" gradientUnits="userSpaceOnUse">
<stop stop-color="#0052CC"/>
<stop offset="0.9228" stop-color="#2684FF"/>
</linearGradient>
</defs>
</svg>
