<svg width="17" height="22" viewBox="0 0 17 22" fill="none" xmlns="http://www.w3.org/2000/svg">
<path d="M9.63651 8.91089L15.2618 8.94585C15.4243 8.94659 15.5835 8.99253 15.7214 9.07852C15.8594 9.16452 15.9707 9.28719 16.043 9.43281C16.1152 9.57844 16.1456 9.74129 16.1306 9.90317C16.1156 10.065 16.0559 10.2196 15.9582 10.3495L7.65746 21.4252C6.4056 20.4886 5.57669 19.0934 5.35283 17.5461C5.12898 15.9987 5.52848 14.4258 6.46358 13.1728L9.63651 8.91089Z" fill="url(#paint0_linear_9061_2029)"/>
<path d="M6.46085 13.1621L0.87056 13.1272C0.708452 13.126 0.549828 13.08 0.41232 12.9941C0.274812 12.9083 0.163807 12.786 0.0916428 12.6408C0.0194785 12.4956 -0.0110177 12.3333 0.00354389 12.1718C0.0181054 12.0104 0.0771543 11.8561 0.174127 11.7262L8.3915 0.75C9.64337 1.68658 10.4723 3.08178 10.6961 4.62911C10.92 6.17644 10.5205 7.74936 9.58539 9.00233L6.46085 13.1621Z" fill="#2684FF"/>
<defs>
<linearGradient id="paint0_linear_9061_2029" x1="9.4164" y1="9.73851" x2="11.7794" y2="16.8841" gradientUnits="userSpaceOnUse">
<stop stop-color="#0052CC"/>
<stop offset="1" stop-color="#2684FF"/>
</linearGradient>
</defs>
</svg>
